<mxfile host="app.diagrams.net" modified="2023-04-03T17:01:33.750Z" agent="Mozilla/5.0 (Windows NT 10.0; Win64; x64) AppleWebKit/537.36 (KHTML, like Gecko) Chrome/111.0.0.0 Safari/537.36 Edg/111.0.1661.62" etag="jn5Dv4OK4OyjsJRCmvjT" version="21.1.4" type="device">
  <diagram name="Page-1" id="j5ZXKEMA-LWqGz3hQCQU">
    <mxGraphModel dx="2713" dy="2553" grid="1" gridSize="10" guides="1" tooltips="1" connect="1" arrows="1" fold="1" page="1" pageScale="1" pageWidth="850" pageHeight="1100" math="0" shadow="0">
      <root>
        <mxCell id="0" />
        <mxCell id="1" parent="0" />
        <mxCell id="wtMr48B77cxMGu6qwbUp-1" value="" style="rounded=0;whiteSpace=wrap;html=1;" vertex="1" parent="1">
          <mxGeometry width="960" height="1100" as="geometry" />
        </mxCell>
        <mxCell id="835Iww-FSJGtcaP8P8Ea-1" value="&lt;b&gt;&lt;font style=&quot;font-size: 30px;&quot;&gt;User&lt;/font&gt;&lt;/b&gt;" style="text;html=1;strokeColor=none;fillColor=none;align=center;verticalAlign=middle;whiteSpace=wrap;rounded=0;" parent="1" vertex="1">
          <mxGeometry x="100" y="38" width="60" height="30" as="geometry" />
        </mxCell>
        <mxCell id="835Iww-FSJGtcaP8P8Ea-2" value="&lt;b style=&quot;font-size: 30px;&quot;&gt;&lt;font style=&quot;font-size: 30px;&quot;&gt;Gatewa&lt;/font&gt;y&lt;/b&gt;" style="text;html=1;strokeColor=none;fillColor=none;align=center;verticalAlign=middle;whiteSpace=wrap;rounded=0;" parent="1" vertex="1">
          <mxGeometry x="438" y="37" width="60" height="30" as="geometry" />
        </mxCell>
        <mxCell id="835Iww-FSJGtcaP8P8Ea-3" value="" style="line;strokeWidth=1;fillColor=none;align=left;verticalAlign=middle;spacingTop=-1;spacingLeft=3;spacingRight=3;rotatable=0;labelPosition=right;points=[];portConstraint=eastwest;strokeColor=inherit;" parent="1" vertex="1">
          <mxGeometry y="79" width="960" height="8" as="geometry" />
        </mxCell>
        <mxCell id="835Iww-FSJGtcaP8P8Ea-4" value="&lt;b&gt;&lt;font style=&quot;font-size: 30px;&quot;&gt;System&lt;/font&gt;&lt;/b&gt;" style="text;html=1;strokeColor=none;fillColor=none;align=center;verticalAlign=middle;whiteSpace=wrap;rounded=0;" parent="1" vertex="1">
          <mxGeometry x="780" y="38" width="60" height="30" as="geometry" />
        </mxCell>
        <mxCell id="835Iww-FSJGtcaP8P8Ea-5" value="" style="endArrow=none;html=1;rounded=0;" parent="1" edge="1">
          <mxGeometry width="50" height="50" relative="1" as="geometry">
            <mxPoint x="280" y="1100" as="sourcePoint" />
            <mxPoint x="284" as="targetPoint" />
          </mxGeometry>
        </mxCell>
        <mxCell id="835Iww-FSJGtcaP8P8Ea-7" value="" style="endArrow=none;html=1;rounded=0;" parent="1" edge="1">
          <mxGeometry width="50" height="50" relative="1" as="geometry">
            <mxPoint x="640" y="1100" as="sourcePoint" />
            <mxPoint x="644" as="targetPoint" />
          </mxGeometry>
        </mxCell>
        <mxCell id="835Iww-FSJGtcaP8P8Ea-10" value="Review and&amp;nbsp;&lt;br&gt;confirm order" style="rounded=1;whiteSpace=wrap;html=1;arcSize=40;" parent="1" vertex="1">
          <mxGeometry x="60" y="230" width="120" height="40" as="geometry" />
        </mxCell>
        <mxCell id="835Iww-FSJGtcaP8P8Ea-11" value="" style="edgeStyle=orthogonalEdgeStyle;html=1;verticalAlign=bottom;endArrow=open;endSize=8;strokeColor=none;rounded=0;startArrow=none;" parent="1" edge="1">
          <mxGeometry relative="1" as="geometry">
            <mxPoint x="420" y="440" as="targetPoint" />
            <mxPoint x="415" y="333" as="sourcePoint" />
          </mxGeometry>
        </mxCell>
        <mxCell id="835Iww-FSJGtcaP8P8Ea-14" value="" style="ellipse;html=1;shape=startState;fillColor=#000000;strokeColor=#ff0000;" parent="1" vertex="1">
          <mxGeometry x="100" y="140" width="30" height="30" as="geometry" />
        </mxCell>
        <mxCell id="835Iww-FSJGtcaP8P8Ea-15" value="" style="edgeStyle=orthogonalEdgeStyle;html=1;verticalAlign=bottom;endArrow=open;endSize=8;strokeColor=#ff0000;rounded=0;" parent="1" source="835Iww-FSJGtcaP8P8Ea-14" edge="1">
          <mxGeometry relative="1" as="geometry">
            <mxPoint x="115" y="230" as="targetPoint" />
          </mxGeometry>
        </mxCell>
        <mxCell id="835Iww-FSJGtcaP8P8Ea-16" value="" style="edgeStyle=orthogonalEdgeStyle;html=1;verticalAlign=bottom;endArrow=open;endSize=8;strokeColor=#ff0000;rounded=0;fillColor=#e51400;" parent="1" edge="1">
          <mxGeometry relative="1" as="geometry">
            <mxPoint x="116.5" y="331" as="targetPoint" />
            <mxPoint x="116.5" y="271" as="sourcePoint" />
          </mxGeometry>
        </mxCell>
        <mxCell id="835Iww-FSJGtcaP8P8Ea-17" value="Choose the&amp;nbsp;&lt;br&gt;billing address" style="rounded=1;whiteSpace=wrap;html=1;arcSize=40;" parent="1" vertex="1">
          <mxGeometry x="60" y="330" width="120" height="40" as="geometry" />
        </mxCell>
        <mxCell id="835Iww-FSJGtcaP8P8Ea-18" value="" style="edgeStyle=orthogonalEdgeStyle;html=1;verticalAlign=bottom;endArrow=open;endSize=8;strokeColor=#FF0000;rounded=0;" parent="1" edge="1">
          <mxGeometry relative="1" as="geometry">
            <mxPoint x="119.5" y="430" as="targetPoint" />
            <mxPoint x="119.5" y="370" as="sourcePoint" />
          </mxGeometry>
        </mxCell>
        <mxCell id="835Iww-FSJGtcaP8P8Ea-19" value="Make Payment" style="rounded=1;whiteSpace=wrap;html=1;arcSize=40;" parent="1" vertex="1">
          <mxGeometry x="60" y="430" width="120" height="40" as="geometry" />
        </mxCell>
        <mxCell id="835Iww-FSJGtcaP8P8Ea-21" value="" style="endArrow=none;html=1;rounded=0;entryX=0.5;entryY=1;entryDx=0;entryDy=0;strokeColor=#FF0000;" parent="1" target="835Iww-FSJGtcaP8P8Ea-19" edge="1">
          <mxGeometry relative="1" as="geometry">
            <mxPoint x="120" y="520" as="sourcePoint" />
            <mxPoint x="500" y="360" as="targetPoint" />
          </mxGeometry>
        </mxCell>
        <mxCell id="835Iww-FSJGtcaP8P8Ea-22" value="" style="line;strokeWidth=1;rotatable=0;dashed=0;labelPosition=right;align=left;verticalAlign=middle;spacingTop=0;spacingLeft=6;points=[];portConstraint=eastwest;strokeColor=#FF0000;" parent="1" vertex="1">
          <mxGeometry x="120" y="514" width="200" height="10" as="geometry" />
        </mxCell>
        <mxCell id="835Iww-FSJGtcaP8P8Ea-23" value="" style="endArrow=none;html=1;rounded=0;strokeColor=#FF0000;" parent="1" edge="1">
          <mxGeometry relative="1" as="geometry">
            <mxPoint x="320" y="520" as="sourcePoint" />
            <mxPoint x="320" y="110" as="targetPoint" />
          </mxGeometry>
        </mxCell>
        <mxCell id="835Iww-FSJGtcaP8P8Ea-25" value="" style="line;strokeWidth=1;rotatable=0;dashed=0;labelPosition=right;align=left;verticalAlign=middle;spacingTop=0;spacingLeft=6;points=[];portConstraint=eastwest;strokeColor=#FF0000;" parent="1" vertex="1">
          <mxGeometry x="320" y="105" width="130" height="10" as="geometry" />
        </mxCell>
        <mxCell id="835Iww-FSJGtcaP8P8Ea-26" value="" style="endArrow=classic;html=1;rounded=0;exitX=1.003;exitY=0.501;exitDx=0;exitDy=0;exitPerimeter=0;strokeColor=#FF0000;" parent="1" source="835Iww-FSJGtcaP8P8Ea-25" edge="1">
          <mxGeometry width="50" height="50" relative="1" as="geometry">
            <mxPoint x="440" y="130" as="sourcePoint" />
            <mxPoint x="450" y="160" as="targetPoint" />
          </mxGeometry>
        </mxCell>
        <mxCell id="835Iww-FSJGtcaP8P8Ea-27" value="Authenticate&lt;br&gt;Payment" style="rounded=1;whiteSpace=wrap;html=1;arcSize=40;" parent="1" vertex="1">
          <mxGeometry x="394" y="161" width="120" height="40" as="geometry" />
        </mxCell>
        <mxCell id="835Iww-FSJGtcaP8P8Ea-29" value="" style="endArrow=classic;html=1;rounded=0;exitX=1.003;exitY=0.501;exitDx=0;exitDy=0;exitPerimeter=0;strokeColor=#FF0000;entryX=0.5;entryY=0;entryDx=0;entryDy=0;" parent="1" target="835Iww-FSJGtcaP8P8Ea-51" edge="1">
          <mxGeometry width="50" height="50" relative="1" as="geometry">
            <mxPoint x="450" y="201" as="sourcePoint" />
            <mxPoint x="450" y="251" as="targetPoint" />
          </mxGeometry>
        </mxCell>
        <mxCell id="835Iww-FSJGtcaP8P8Ea-51" value="Payment&lt;br&gt;Successful" style="shape=rhombus;perimeter=rhombusPerimeter;whiteSpace=wrap;html=1;align=center;fillColor=#fff2cc;strokeColor=#d6b656;" parent="1" vertex="1">
          <mxGeometry x="390" y="340" width="124" height="60" as="geometry" />
        </mxCell>
        <mxCell id="835Iww-FSJGtcaP8P8Ea-58" value="Payment&lt;br&gt;Received" style="rounded=1;whiteSpace=wrap;html=1;arcSize=40;" parent="1" vertex="1">
          <mxGeometry x="770" y="450" width="120" height="40" as="geometry" />
        </mxCell>
        <mxCell id="835Iww-FSJGtcaP8P8Ea-61" value="Payment&lt;br&gt;Failed" style="rounded=1;whiteSpace=wrap;html=1;arcSize=40;" parent="1" vertex="1">
          <mxGeometry x="391.5" y="530" width="120" height="40" as="geometry" />
        </mxCell>
        <mxCell id="835Iww-FSJGtcaP8P8Ea-62" value="" style="endArrow=classic;html=1;rounded=0;strokeColor=#FF0000;" parent="1" edge="1">
          <mxGeometry width="50" height="50" relative="1" as="geometry">
            <mxPoint x="451" y="570" as="sourcePoint" />
            <mxPoint x="451.5" y="687" as="targetPoint" />
          </mxGeometry>
        </mxCell>
        <mxCell id="835Iww-FSJGtcaP8P8Ea-63" value="Notify&amp;nbsp;&lt;br&gt;System and user" style="rounded=1;whiteSpace=wrap;html=1;arcSize=40;" parent="1" vertex="1">
          <mxGeometry x="392.5" y="687" width="120" height="40" as="geometry" />
        </mxCell>
        <mxCell id="835Iww-FSJGtcaP8P8Ea-64" value="" style="endArrow=classic;html=1;rounded=0;strokeColor=#FF0000;exitX=0.5;exitY=1;exitDx=0;exitDy=0;entryX=0.5;entryY=0;entryDx=0;entryDy=0;" parent="1" source="835Iww-FSJGtcaP8P8Ea-58" target="835Iww-FSJGtcaP8P8Ea-65" edge="1">
          <mxGeometry width="50" height="50" relative="1" as="geometry">
            <mxPoint x="381.5" y="940" as="sourcePoint" />
            <mxPoint x="382" y="1010" as="targetPoint" />
          </mxGeometry>
        </mxCell>
        <mxCell id="835Iww-FSJGtcaP8P8Ea-65" value="Generate&lt;br&gt;Invoice" style="rounded=1;whiteSpace=wrap;html=1;arcSize=40;" parent="1" vertex="1">
          <mxGeometry x="770" y="660" width="120" height="40" as="geometry" />
        </mxCell>
        <mxCell id="835Iww-FSJGtcaP8P8Ea-66" value="" style="endArrow=none;html=1;rounded=0;strokeColor=#FF0000;exitX=0.5;exitY=1;exitDx=0;exitDy=0;" parent="1" source="835Iww-FSJGtcaP8P8Ea-65" edge="1">
          <mxGeometry width="50" height="50" relative="1" as="geometry">
            <mxPoint x="321.5" y="919.5" as="sourcePoint" />
            <mxPoint x="170" y="800" as="targetPoint" />
            <Array as="points">
              <mxPoint x="830" y="800" />
            </Array>
          </mxGeometry>
        </mxCell>
        <mxCell id="835Iww-FSJGtcaP8P8Ea-67" value="" style="endArrow=classic;html=1;rounded=0;strokeColor=#FF0000;" parent="1" edge="1">
          <mxGeometry width="50" height="50" relative="1" as="geometry">
            <mxPoint x="170" y="800" as="sourcePoint" />
            <mxPoint x="170.5" y="870" as="targetPoint" />
          </mxGeometry>
        </mxCell>
        <mxCell id="835Iww-FSJGtcaP8P8Ea-68" value="Notify Customer&lt;br&gt;(Order Placed)" style="rounded=1;whiteSpace=wrap;html=1;arcSize=40;" parent="1" vertex="1">
          <mxGeometry x="120" y="870" width="120" height="40" as="geometry" />
        </mxCell>
        <mxCell id="835Iww-FSJGtcaP8P8Ea-69" value="" style="ellipse;html=1;shape=endState;fillColor=#000000;strokeColor=#ff0000;" parent="1" vertex="1">
          <mxGeometry x="160" y="1020" width="30" height="30" as="geometry" />
        </mxCell>
        <mxCell id="835Iww-FSJGtcaP8P8Ea-71" value="" style="endArrow=classic;html=1;rounded=0;strokeColor=#FF0000;exitX=0.5;exitY=1;exitDx=0;exitDy=0;entryX=0.5;entryY=0;entryDx=0;entryDy=0;" parent="1" target="835Iww-FSJGtcaP8P8Ea-69" edge="1">
          <mxGeometry width="50" height="50" relative="1" as="geometry">
            <mxPoint x="175" y="910" as="sourcePoint" />
            <mxPoint x="-271" y="1330" as="targetPoint" />
          </mxGeometry>
        </mxCell>
        <mxCell id="J8swCECVs7bCkBbzVlJx-1" value="" style="edgeStyle=orthogonalEdgeStyle;html=1;verticalAlign=bottom;endArrow=open;endSize=8;strokeColor=#FF0000;rounded=0;entryX=0;entryY=0.5;entryDx=0;entryDy=0;exitX=1;exitY=0.5;exitDx=0;exitDy=0;" parent="1" source="835Iww-FSJGtcaP8P8Ea-51" target="835Iww-FSJGtcaP8P8Ea-58" edge="1">
          <mxGeometry relative="1" as="geometry">
            <mxPoint x="670" y="490" as="targetPoint" />
            <mxPoint x="129.5" y="380" as="sourcePoint" />
            <Array as="points">
              <mxPoint x="580" y="370" />
              <mxPoint x="580" y="470" />
            </Array>
          </mxGeometry>
        </mxCell>
        <mxCell id="J8swCECVs7bCkBbzVlJx-2" value="" style="endArrow=classic;html=1;rounded=0;strokeColor=#FF0000;exitX=0.5;exitY=1;exitDx=0;exitDy=0;entryX=0.5;entryY=0;entryDx=0;entryDy=0;" parent="1" source="835Iww-FSJGtcaP8P8Ea-51" target="835Iww-FSJGtcaP8P8Ea-61" edge="1">
          <mxGeometry width="50" height="50" relative="1" as="geometry">
            <mxPoint x="185" y="1040" as="sourcePoint" />
            <mxPoint x="185" y="1150" as="targetPoint" />
          </mxGeometry>
        </mxCell>
        <mxCell id="J8swCECVs7bCkBbzVlJx-3" value="" style="endArrow=classic;html=1;rounded=0;strokeColor=#FF0000;entryX=0.25;entryY=1;entryDx=0;entryDy=0;exitX=0;exitY=0.5;exitDx=0;exitDy=0;" parent="1" source="835Iww-FSJGtcaP8P8Ea-63" target="835Iww-FSJGtcaP8P8Ea-19" edge="1">
          <mxGeometry width="50" height="50" relative="1" as="geometry">
            <mxPoint x="280" y="707" as="sourcePoint" />
            <mxPoint x="461.5" y="540" as="targetPoint" />
            <Array as="points">
              <mxPoint x="90" y="707" />
            </Array>
          </mxGeometry>
        </mxCell>
        <mxCell id="J8swCECVs7bCkBbzVlJx-4" value="Yes" style="text;html=1;align=center;verticalAlign=middle;resizable=0;points=[];autosize=1;" parent="1" vertex="1">
          <mxGeometry x="650" y="452" width="30" height="20" as="geometry" />
        </mxCell>
        <mxCell id="J8swCECVs7bCkBbzVlJx-6" value="No" style="text;html=1;align=center;verticalAlign=middle;resizable=0;points=[];autosize=1;" parent="1" vertex="1">
          <mxGeometry x="453" y="460" width="30" height="20" as="geometry" />
        </mxCell>
        <mxCell id="J8swCECVs7bCkBbzVlJx-7" value="Redirect" style="text;html=1;align=center;verticalAlign=middle;resizable=0;points=[];autosize=1;" parent="1" vertex="1">
          <mxGeometry x="165" y="687" width="60" height="20" as="geometry" />
        </mxCell>
        <mxCell id="mLB3P4vwTOl_ICpgxYxi-1" value="&lt;font size=&quot;1&quot; face=&quot;Comic Sans MS&quot;&gt;&lt;b style=&quot;font-size: 38px;&quot;&gt;Payment Activity Diagram&lt;/b&gt;&lt;/font&gt;" style="rounded=0;whiteSpace=wrap;html=1;" parent="1" vertex="1">
          <mxGeometry x="210" y="-110" width="540" height="70" as="geometry" />
        </mxCell>
      </root>
    </mxGraphModel>
  </diagram>
</mxfile>
